<svg xmlns="http://www.w3.org/2000/svg" viewbox="0 0 132 22" fill="none" class="svg_logo">
  <g fill="#1E1E1E" clip-path="url(#a)">
    <path
      d="m2.725 11.233 5.268 6.502 1.547-1.208-4.473-5.406 3.858-4.876L7.355 5.1l-4.63 6.133ZM0 .44v16.99h2.006V0L0 .44ZM11.326 14.197a3.322 3.322 0 0 1 1.212-2.777c.805-.637 1.978-.956 3.52-.959h2.314v-.768c0-1.861-.815-2.792-2.445-2.792a6.71 6.71 0 0 0-1.644.22 9.584 9.584 0 0 0-1.581.552l-.59-1.428a8.008 8.008 0 0 1 1.932-.783 7.851 7.851 0 0 1 2.013-.276c2.826-.01 4.24 1.507 4.24 4.552v7.691h-1.492l-.239-1.32a7.108 7.108 0 0 1-1.908 1.119 5.268 5.268 0 0 1-1.928.395 3.355 3.355 0 0 1-2.498-.913 3.413 3.413 0 0 1-.906-2.517m3.766 1.805c.29-.002.577-.04.857-.112.303-.074.601-.169.891-.284.291-.116.57-.26.835-.428.247-.16.48-.342.697-.54v-2.812h-2.087c-1.057 0-1.827.183-2.312.548a2.039 2.039 0 0 0-.745 1.738c0 1.26.621 1.89 1.864 1.89ZM25.866 17.43H23.86V.44L25.866 0v17.43ZM31.227 5.1l1.57 1.145-3.859 4.891 4.474 5.406-1.558 1.193-5.276-6.502 4.65-6.133ZM35.187 14.197a3.328 3.328 0 0 1 1.208-2.777c.808-.638 1.98-.959 3.523-.959h2.311v-.768c0-1.861-.814-2.792-2.442-2.792a6.71 6.71 0 0 0-1.648.22 9.588 9.588 0 0 0-1.58.552l-.604-1.428a8.068 8.068 0 0 1 1.93-.783 7.86 7.86 0 0 1 2.018-.276c2.836-.01 4.254 1.507 4.254 4.552v7.691h-1.492l-.238-1.32a7.108 7.108 0 0 1-1.91 1.119 5.268 5.268 0 0 1-1.927.395 3.355 3.355 0 0 1-2.498-.913 3.412 3.412 0 0 1-.902-2.517m3.747 1.808c.29-.002.58-.039.861-.111.302-.075.599-.17.888-.284a4.895 4.895 0 0 0 1.532-.97v-2.81h-2.084c-1.059 0-1.83.182-2.315.548a2.04 2.04 0 0 0-.727 1.737c0 1.26.615 1.89 1.845 1.89ZM52.217 5.212c1.655 0 2.96.54 3.904 1.626.943 1.084 1.416 2.635 1.416 4.656 0 2.02-.466 3.527-1.405 4.593-.94 1.066-2.237 1.607-3.915 1.607s-2.956-.537-3.903-1.607c-.947-1.07-1.417-2.61-1.417-4.593s.477-3.575 1.428-4.656c.95-1.082 2.237-1.626 3.892-1.626Zm0 1.626a2.77 2.77 0 0 0-2.408 1.185c-.56.79-.84 1.95-.84 3.471 0 1.521.28 2.65.84 3.419a3.117 3.117 0 0 0 4.846 0c.56-.768.84-1.908.84-3.419 0-1.521-.28-2.68-.84-3.47a2.793 2.793 0 0 0-2.43-1.186M60.62 16.479l2.237-2.237 2.237 2.236-2.237 2.237-2.237-2.236Zm.436-15.431h3.606l-.482 10.89h-2.61l-.514-10.89ZM67.555 5.268h2.177l.436 1.167a5.525 5.525 0 0 1 3.758-1.536c1.47 0 2.52.503 3.117 1.536a5.417 5.417 0 0 1 3.728-1.536c2.405 0 3.728 1.376 3.728 4.425v8.023h-3.098V9.518c0-1.353-.507-1.924-1.927-1.924-.657 0-1.308.117-1.924.343v9.421h-3.072V9.53c0-1.353-.481-1.924-1.905-1.924-.663.01-1.32.127-1.946.343v9.422h-3.072V5.268ZM90.185 17.44v4.564h-3.072V5.268h2.177l.373 1.007a4.656 4.656 0 0 1 3.463-1.376c3.162 0 4.586 2.364 4.586 6.189 0 4.015-2.293 6.602-5.574 6.602a6.822 6.822 0 0 1-1.953-.25Zm0-9.63v7.498c.37.053.744.075 1.118.067 2.431 0 3.3-1.674 3.3-4.287 0-2.237-.526-3.729-2.52-3.729a4.765 4.765 0 0 0-1.898.452ZM104.382 9.988h1.927v-.41c0-1.331-.414-2.088-2.237-2.088a6.752 6.752 0 0 0-3.254.802l-.85-2.11a8.319 8.319 0 0 1 4.473-1.283c3.095 0 4.72 1.514 4.72 4.653v7.795h-2.155l-.343-1.032a6.047 6.047 0 0 1-3.646 1.353c-2.36 0-3.668-1.398-3.668-3.803.01-2.546 1.756-3.877 5.033-3.877Zm1.927 4.332v-2.36h-1.651c-1.652 0-2.524.664-2.524 1.864 0 .873.507 1.447 1.513 1.447a4.35 4.35 0 0 0 2.662-.951ZM120.368 8.016a6.977 6.977 0 0 0-2.938-.642c-1.785 0-2.982 1.078-2.982 3.922 0 2.845 1.238 3.874 3.277 3.874a8.755 8.755 0 0 0 3.094-.686l.712 2.129a8.73 8.73 0 0 1-4.332 1.077c-3.922 0-5.845-2.315-5.845-6.371 0-3.896 1.923-6.42 5.89-6.42a7.554 7.554 0 0 1 4.038 1.018l-.914 2.099ZM122.393 5.495l1.927-.227v-2.43l3.117-.668v3.098h3.624v2.315h-3.624v5.25c0 1.864.481 2.236 1.376 2.236a6.013 6.013 0 0 0 1.994-.41l.712 2.155a7.413 7.413 0 0 1-3.53.891c-2.547 0-3.669-1.558-3.669-4.653V7.583h-1.927V5.495Z" />
  </g>
  <defs>
    <clipPath id="a">
      <path fill="#fff" d="M0 0h131.519v22H0z" />
    </clipPath>
  </defs>
</svg>