<svg width="111" height="68" viewBox="0 0 111 68" fill="none" xmlns="http://www.w3.org/2000/svg">
<path d="M40.0148 12.9544V1.88164H35.0136V28.8655H40.0148V17.8717H50.9417V12.9544H40.0148Z" fill="#333333"/>
<path d="M0 24.6599L3.67222 28.0677L11.5866 20.16L19.5033 28.0677L23.1744 24.6599L11.5866 13.0836L0 24.6599Z" fill="#333333"/>
<path d="M38.3015 44.9908H38.2991C37.6393 45.6355 36.9126 45.9358 36.0158 45.9358C35.119 45.9358 34.4473 45.6475 33.8414 45.0243C33.2224 44.3903 32.935 43.6762 32.935 42.7803C32.935 41.8844 33.2176 41.199 33.8246 40.5926C34.4317 39.9861 35.1261 39.7038 36.0146 39.7038C36.903 39.7038 37.6513 39.9969 38.317 40.6249C38.954 41.2277 39.2509 41.9131 39.2509 42.7803C39.2509 43.6475 38.9492 44.3592 38.3003 44.9908M36.0158 34.7853C33.8234 34.7853 31.9209 35.5747 30.362 37.1321C28.8018 38.6895 28.0116 40.5902 28.0116 42.7803C28.0116 44.9705 28.803 46.8723 30.3608 48.4273C31.9185 49.9847 33.821 50.7742 36.0146 50.7742C38.2081 50.7742 40.1094 49.9847 41.6684 48.4273C43.2285 46.8699 44.0187 44.9693 44.0187 42.7791C44.0187 40.589 43.2285 38.6907 41.6672 37.1297C40.107 35.5735 38.2057 34.7841 36.0158 34.7841" fill="#333333"/>
<path d="M89.2432 62.195H89.2408C88.581 62.8397 87.8543 63.1399 86.9575 63.1399C86.0607 63.1399 85.3889 62.8517 84.7831 62.2285C84.1641 61.5945 83.8767 60.8804 83.8767 59.9845C83.8767 59.0886 84.1593 58.4032 84.7663 57.7968C85.3734 57.1903 86.0678 56.908 86.9563 56.908C87.8447 56.908 88.593 57.2011 89.2587 57.8291C89.8957 58.4319 90.1926 59.1173 90.1926 59.9845C90.1926 60.8517 89.8909 61.5634 89.242 62.195M86.9575 51.9907C84.7651 51.9907 82.8626 52.7801 81.3036 54.3375C79.7447 55.8949 78.9533 57.7956 78.9533 59.9857C78.9533 62.1759 79.7447 64.0777 81.3025 65.6327C82.8602 67.1901 84.7627 67.9796 86.9563 67.9796C89.1498 67.9796 91.0511 67.1901 92.6101 65.6327C94.1702 64.0753 94.9604 62.1747 94.9604 59.9845C94.9604 57.7944 94.1702 55.8961 92.6089 54.3351C91.0487 52.7789 89.1474 51.9895 86.9575 51.9895" fill="#333333"/>
<path d="M90.9553 30.1586V19.087H85.9553V46.0709H90.9553V35.0759H101.883V30.1586H90.9553Z" fill="#333333"/>
<path d="M50.9417 41.8653L54.6139 45.2719L62.5283 37.3642L70.445 45.2719L74.1161 41.8653L62.5283 30.2878L50.9417 41.8653Z" fill="#333333"/>
<path d="M102.834 6.21529V1.75485C102.834 1.27041 103.001 0.860135 103.338 0.524017C103.675 0.1879 104.08 0.0204391 104.553 0.0204391C105.026 0.0204391 105.433 0.1879 105.77 0.524017C106.106 0.860135 106.281 1.27041 106.291 1.75485V6.21529C106.281 6.69973 106.106 7.11001 105.77 7.44612C105.433 7.78224 105.028 7.9497 104.553 7.9497C104.079 7.9497 103.673 7.78224 103.338 7.44612C103.002 7.11001 102.834 6.69973 102.834 6.21529Z" fill="#333333"/>
<path d="M103.133 8.42577L99.1032 6.50595C98.665 6.29902 98.3644 5.97367 98.204 5.52511C98.0424 5.07775 98.0651 4.63876 98.2675 4.21054C98.4698 3.78232 98.7943 3.48807 99.2433 3.32779C99.6923 3.1675 100.138 3.18545 100.58 3.38281L104.61 5.30263C105.044 5.51793 105.34 5.85166 105.502 6.29902C105.662 6.74638 105.641 7.18417 105.438 7.61239C105.236 8.04061 104.91 8.33486 104.462 8.49634C104.015 8.65662 103.572 8.6327 103.133 8.42457" fill="#333333"/>
<path d="M105.19 8.9748L102.368 12.4305C102.064 12.8073 101.676 13.0214 101.203 13.0716C100.73 13.123 100.309 12.9986 99.9401 12.702C99.5714 12.4042 99.3618 12.0202 99.3103 11.5465C99.26 11.074 99.3822 10.6446 99.6791 10.263L102.501 6.80738C102.814 6.43657 103.206 6.22725 103.681 6.17701C104.154 6.12677 104.574 6.24998 104.944 6.54901C105.313 6.84566 105.523 7.23082 105.574 7.7033C105.625 8.17697 105.496 8.6004 105.192 8.97719" fill="#333333"/>
<path d="M105.964 8.42577L109.994 6.50595C110.432 6.29902 110.733 5.97367 110.893 5.52511C111.055 5.07775 111.032 4.63876 110.83 4.21054C110.628 3.78232 110.303 3.48807 109.854 3.32779C109.405 3.1675 108.96 3.18545 108.518 3.38281L104.488 5.30263C104.053 5.51793 103.757 5.85166 103.596 6.29902C103.435 6.74638 103.457 7.18417 103.659 7.61239C103.861 8.04061 104.187 8.33486 104.635 8.49634C105.083 8.65662 105.526 8.6327 105.964 8.42457" fill="#333333"/>
<path d="M103.907 8.9748L106.729 12.4305C107.033 12.8073 107.421 13.0214 107.894 13.0716C108.367 13.123 108.788 12.9986 109.157 12.702C109.526 12.4042 109.736 12.0202 109.787 11.5465C109.837 11.074 109.715 10.6446 109.418 10.263L106.596 6.80738C106.284 6.43657 105.891 6.22725 105.417 6.17701C104.944 6.12677 104.524 6.24998 104.154 6.54901C103.785 6.84566 103.574 7.23082 103.524 7.7033C103.472 8.17697 103.602 8.6004 103.906 8.97719" fill="#333333"/>
</svg>
