<svg width="48" height="48" viewBox="0 0 48 48" fill="none" xmlns="http://www.w3.org/2000/svg">
<mask id="mask0_0_517" style="mask-type:luminance" maskUnits="userSpaceOnUse" x="12" y="12" width="24" height="24">
<path fill-rule="evenodd" clip-rule="evenodd" d="M12.4789 12.48H35.5189V35.52H12.4789V12.48Z" fill="white"/>
</mask>
<g mask="url(#mask0_0_517)">
<path fill-rule="evenodd" clip-rule="evenodd" d="M23.9989 12.48C20.8702 12.48 20.4779 12.4932 19.2492 12.5493C18.023 12.6052 17.1856 12.8 16.4528 13.0848C15.6953 13.3791 15.0528 13.7731 14.4124 14.4135C13.7719 15.054 13.378 15.6964 13.0836 16.4539C12.7988 17.1867 12.6041 18.0241 12.5482 19.2503C12.4921 20.479 12.4789 20.8713 12.4789 24C12.4789 27.1286 12.4921 27.5209 12.5482 28.7497C12.6041 29.9758 12.7988 30.8133 13.0836 31.546C13.378 32.3035 13.7719 32.946 14.4124 33.5864C15.0528 34.2269 15.6953 34.6208 16.4528 34.9152C17.1856 35.2 18.023 35.3947 19.2492 35.4507C20.4779 35.5067 20.8702 35.52 23.9989 35.52C27.1275 35.52 27.5198 35.5067 28.7485 35.4507C29.9747 35.3947 30.8121 35.2 31.5449 34.9152C32.3025 34.6208 32.9449 34.2269 33.5853 33.5864C34.2258 32.946 34.6197 32.3036 34.9141 31.546C35.1989 30.8133 35.3936 29.9758 35.4496 28.7497C35.5056 27.5209 35.5189 27.1286 35.5189 24C35.5189 20.8713 35.5056 20.479 35.4496 19.2503C35.3936 18.0241 35.1989 17.1867 34.9141 16.4539C34.6197 15.6964 34.2258 15.054 33.5853 14.4135C32.9449 13.7731 32.3025 13.3791 31.5449 13.0848C30.8121 12.8 29.9747 12.6052 28.7485 12.5493C27.5198 12.4932 27.1275 12.48 23.9989 12.48ZM23.9988 14.5556C27.0748 14.5556 27.4391 14.5673 28.6539 14.6227C29.777 14.674 30.387 14.8617 30.7929 15.0194C31.3307 15.2284 31.7145 15.478 32.1176 15.8811C32.5207 16.2843 32.7703 16.668 32.9793 17.2058C33.137 17.6117 33.3247 18.2217 33.376 19.3449C33.4314 20.5596 33.4431 20.924 33.4431 23.9999C33.4431 27.0759 33.4314 27.4403 33.376 28.655C33.3247 29.7782 33.137 30.3882 32.9793 30.7941C32.7703 31.3318 32.5207 31.7156 32.1176 32.1187C31.7145 32.5218 31.3307 32.7715 30.7929 32.9804C30.387 33.1381 29.777 33.3259 28.6539 33.3771C27.4393 33.4325 27.075 33.4443 23.9988 33.4443C20.9226 33.4443 20.5583 33.4325 19.3438 33.3771C18.2206 33.3259 17.6105 33.1381 17.2046 32.9804C16.6669 32.7715 16.2831 32.5218 15.88 32.1187C15.4769 31.7156 15.2273 31.3318 15.0183 30.7941C14.8606 30.3882 14.6729 29.7782 14.6216 28.655C14.5662 27.4403 14.5545 27.0759 14.5545 23.9999C14.5545 20.924 14.5662 20.5596 14.6216 19.3449C14.6729 18.2217 14.8606 17.6117 15.0183 17.2058C15.2273 16.668 15.4769 16.2843 15.88 15.8812C16.2831 15.478 16.6669 15.2284 17.2046 15.0194C17.6105 14.8617 18.2206 14.674 19.3437 14.6227C20.5585 14.5673 20.9228 14.5556 23.9988 14.5556Z" fill="white"/>
</g>
<path fill-rule="evenodd" clip-rule="evenodd" d="M24.3192 28.2667C22.1396 28.2667 20.3726 26.4997 20.3726 24.32C20.3726 22.1404 22.1396 20.3734 24.3192 20.3734C26.4989 20.3734 28.2659 22.1404 28.2659 24.32C28.2659 26.4997 26.4989 28.2667 24.3192 28.2667ZM24.3189 18.24C20.961 18.24 18.2389 20.9621 18.2389 24.32C18.2389 27.6779 20.961 30.4 24.3189 30.4C27.6768 30.4 30.3989 27.6779 30.3989 24.32C30.3989 20.9621 27.6768 18.24 24.3189 18.24Z" fill="white"/>
<path fill-rule="evenodd" clip-rule="evenodd" d="M31.6789 17.5998C31.6789 18.3068 31.1058 18.8798 30.3989 18.8798C29.692 18.8798 29.1189 18.3068 29.1189 17.5998C29.1189 16.8929 29.692 16.3198 30.3989 16.3198C31.1058 16.3198 31.6789 16.8929 31.6789 17.5998Z" fill="white"/>
</svg>
