<svg width="48" height="48" viewBox="0 0 48 48" fill="none" xmlns="http://www.w3.org/2000/svg">
<mask id="mask0_0_542" style="mask-type:luminance" maskUnits="userSpaceOnUse" x="17" y="12" width="14" height="24">
<path fill-rule="evenodd" clip-rule="evenodd" d="M17.2385 12.48H30.2058V35.52H17.2385V12.48Z" fill="white"/>
</mask>
<g mask="url(#mask0_0_542)">
</g>
<g clip-path="url(#clip0_0_542)">
<path d="M18.3345 30.1747C18.3391 30.1747 18.4222 30.1727 18.5694 30.1639H18.5711C19.3099 30.1203 21.6808 29.9032 24.1316 28.83C25.421 28.2654 29.0904 26.1348 29.0904 23.2695C29.0904 22.1855 28.4305 21.5639 27.3062 21.5639C25.5948 21.5639 23.5253 22.9427 21.2131 25.3469C21.1549 25.4217 21.0463 25.3689 21.3445 24.8845C21.922 23.9444 23.2326 21.5468 26.1004 18.7231C27.7761 17.0728 26.9228 16.4412 26.9228 16.4412C26.9228 16.4412 28.616 15.6632 29.8904 14.0046C30.6534 13.0117 31.621 11.0653 31.1993 10.5347C30.8497 10.0948 30.1345 10.3173 28.5345 11.7268C26.5449 13.4799 23.5299 18.5855 21.8929 21.647C21.4887 22.4034 19.1353 26.4737 17.4609 29.3627C17.1644 29.2587 16.8447 29.1032 16.5174 28.8691L16.3124 29.2292C16.4813 29.4051 16.7952 29.6379 17.1914 29.8275C16.3806 31.2259 15.7831 32.2538 15.747 32.3165C15.6351 32.5091 15.7382 32.5922 15.8625 32.5373C16.0176 32.4691 16.1648 32.4055 16.3037 32.3452C17.4318 31.8575 17.668 31.6538 17.749 31.1847C17.8975 30.3261 18.3349 30.1747 18.3353 30.1747H18.3345ZM30.1657 11.3102C29.4388 13.6903 27.6472 15.2158 26.2754 16.1942C25.9124 16.4533 26.2709 16.6474 26.2804 17.015C26.2925 17.472 25.4684 18.04 24.2114 19.4129C26.6118 14.7718 30.1657 11.3102 30.1657 11.3102ZM25.5237 22.7859L25.5935 22.7506C26.0164 22.5369 26.4222 22.4192 26.7366 22.4192C26.9894 22.4192 27.1827 22.4932 27.312 22.6383C27.458 22.8026 27.5124 23.0512 27.4742 23.3768C27.2355 25.3938 25.2334 27.3011 23.4738 28.2192C21.4426 29.2795 19.1773 29.5132 18.7224 29.5506C18.6962 29.5519 18.67 29.5531 18.6409 29.554C18.6796 29.4916 21.6609 24.6866 25.5237 22.7855V22.7859Z" fill="white"/>
<path d="M33.5 34.7764H13.5V36.9984H33.5V34.7764Z" fill="white"/>
</g>
<defs>
<clipPath id="clip0_0_542">
<rect width="20" height="26.6667" fill="white" transform="translate(13.5 10.3318)"/>
</clipPath>
</defs>
</svg>
