<svg width="48" height="48" viewBox="0 0 48 48" fill="none" xmlns="http://www.w3.org/2000/svg">
<path d="M35.9749 18.0711C35.8287 17.5288 35.5427 17.0344 35.1456 16.6372C34.7484 16.2401 34.2539 15.9541 33.7116 15.8079C31.7139 15.2642 23.7081 15.2642 23.7081 15.2642C23.7081 15.2642 15.7002 15.2642 13.7066 15.7994C13.1631 15.946 12.6678 16.2331 12.2705 16.6319C11.8732 17.0307 11.5879 17.5271 11.4433 18.0711C10.9081 20.0668 10.9081 24.233 10.9081 24.233C10.9081 24.233 10.9081 28.3992 11.4433 30.3948C11.5892 30.9373 11.875 31.432 12.2723 31.8292C12.6695 32.2264 13.1641 32.5123 13.7066 32.6581C15.7023 33.1934 23.7081 33.1934 23.7081 33.1934C23.7081 33.1934 31.716 33.1934 33.7116 32.6581C34.2539 32.5119 34.7484 32.2259 35.1456 31.8287C35.5427 31.4316 35.8287 30.9371 35.9749 30.3948C36.5081 28.3992 36.5081 24.233 36.5081 24.233C36.5081 24.233 36.5018 20.0668 35.9749 18.0711Z" fill="white"/>
<path d="M21.1469 28.0729L27.7997 24.2334L21.1469 20.3938V28.0729Z" fill="#888888"/>
</svg>
