<svg width="48" height="48" viewBox="0 0 48 48" fill="none" xmlns="http://www.w3.org/2000/svg">
<path fill-rule="evenodd" clip-rule="evenodd" d="M31.3227 27.7331H29.738V24.0617C29.738 23.2164 29.2589 22.7621 28.522 22.7621C27.6989 22.7621 27.1707 23.2792 27.1707 24.3264V27.7331H25.5859V18.7532H27.1707V22.1311C27.5515 21.5382 28.1656 21.2481 29.001 21.2481C29.6767 21.2481 30.2295 21.4751 30.6594 21.9418C31.1016 22.4088 31.3227 23.0395 31.3227 23.8597V27.7331ZM19.9277 26.2012C21.0969 26.2012 22.0969 25.4825 22.3973 24.372H24.1268C23.7039 26.5092 22.0848 27.9098 19.9277 27.9098C17.4211 27.9098 15.4336 25.9898 15.4336 23.3175C15.4336 20.645 17.4211 18.725 19.9277 18.725C22.1064 18.725 23.737 20.1538 24.1396 22.3276H22.4151C22.1528 21.1456 21.1188 20.4091 19.9277 20.4091C18.2423 20.4091 17.1213 21.6439 17.1213 23.3175C17.1213 24.991 18.3959 26.2012 19.9277 26.2012ZM23.9261 12C17.3395 12 12 17.0726 12 23.3301C12 27.9516 13.8845 30.1577 16.4656 32.169L16.478 32.1745V37.598C16.478 37.8539 16.7621 38.0007 16.9621 37.8481L21.4847 34.3975L21.5821 34.4408C22.3401 34.5843 23.1239 34.6602 23.9261 34.6602C30.5129 34.6602 35.8524 29.5875 35.8524 23.3301C35.8524 17.0726 30.5129 12 23.9261 12Z" fill="white"/>
</svg>
