<svg width="100%" height="100%" viewBox="0 0 10 18" fill="none" xmlns="http://www.w3.org/2000/svg">
<path d="M0 8.51074C0 8.36719 0.0239258 8.23389 0.0717773 8.11084C0.126465 7.98096 0.211914 7.86133 0.328125 7.75195L7.95703 0.297363C8.14844 0.0991211 8.38428 0 8.66455 0C8.85596 0 9.02686 0.0444336 9.17725 0.133301C9.33447 0.222168 9.45752 0.341797 9.54639 0.492188C9.64209 0.642578 9.68994 0.816895 9.68994 1.01514C9.68994 1.28857 9.5874 1.52783 9.38232 1.73291L2.45068 8.51074L9.38232 15.2886C9.5874 15.4937 9.68994 15.7329 9.68994 16.0063C9.68994 16.1978 9.64209 16.3687 9.54639 16.519C9.45752 16.6763 9.33447 16.7993 9.17725 16.8882C9.02686 16.9771 8.85596 17.0215 8.66455 17.0215C8.38428 17.0215 8.14844 16.9224 7.95703 16.7241L0.328125 9.26953C0.211914 9.16016 0.126465 9.04395 0.0717773 8.9209C0.0239258 8.79102 0 8.6543 0 8.51074Z" fill="#999999"/>
</svg>
